<svg width="244" height="56" viewBox="0 0 244 56" fill="none" xmlns="http://www.w3.org/2000/svg">
<path d="M54 13C46.7976 13 42.437 16.3273 35.8889 19C32.2983 20.4655 46.3117 22.773 46.7778 22.8889C54.3124 24.7632 61.8729 26.3853 69.3889 28.0556C75.5979 29.4353 57.3002 33.1889 50.9444 32.9444C39.9309 32.5208 29.0533 31.9129 18 32.0556C16.1957 32.0788 -0.788763 31.4225 1 35M73 27C74.1935 27.4476 74.212 32.3314 75.6667 31.5556C79.3513 29.5904 82.3927 23.7951 84.4444 20.2778C85.0082 19.3114 85.6096 21.0844 85.8889 21.4444C87.9866 24.1494 90.8561 25.9656 93.5556 28C94.8515 28.9767 98.8428 33.1533 99 29.2222C99.2964 21.8115 103.843 29.8032 106.111 32.3333C108.089 34.5397 115.171 38.4721 118.333 36.7778C123.157 34.1937 115.689 11.8436 115 9M115 4C116.944 4 117.776 3.82429 118.778 5.72222C123.037 13.7928 125.575 22.504 128.444 31.1111C129.662 34.763 131.794 37.938 133.444 41.3889C135.788 46.2887 135 38.6073 135 37C135 33.2713 135.151 29.1376 134.623 25.1885M134.623 25.1885C134.223 22.1928 133.432 19.3034 131.889 16.7778C130.756 14.9241 129.667 21.5501 130.444 22.7778C131.196 23.9652 132.767 24.715 134.623 25.1885ZM134.623 25.1885C137.804 25.9998 141.822 26 144 26M176 28C181.18 28 181.497 15.8628 181.889 12.3333C182.122 10.2332 182.201 8.41311 181 6.61111C175.116 -2.21517 193.303 23.9454 200.333 31.8889C203.207 35.1361 207.592 43.02 209.444 35.6667C211.316 28.2349 213.892 18.5068 210.222 11.1667C209.685 10.0918 203.443 0.379597 202.444 0.833337C199.297 2.26406 200 9.28685 200 12M216 20C221.646 20 222.045 21.7939 225.389 26.1667C226.001 26.9669 227.389 26.3373 228.906 25.2238M228.906 25.2238C231.096 23.6166 233.554 21.0012 234.333 20.2222C234.564 19.9914 233.12 19.9487 233 20C231.475 20.6534 230.126 22.8745 228.906 25.2238ZM228.906 25.2238C227.74 27.4695 226.692 29.8325 225.722 31.0556C218.086 40.6838 209.151 48.233 199 55M237 25C240.297 24.4504 243.218 19.6616 243 25.7778C242.903 28.4854 240.591 29.636 240 32M177 29C172.488 29 167.956 29.1172 163.444 29C156.18 28.8113 149.368 26 142 26" stroke="black" stroke-linecap="round"/>
</svg>
